<svg xmlns="http://www.w3.org/2000/svg" xmlns:xlink="http://www.w3.org/1999/xlink" width="512" zoomAndPan="magnify" viewBox="0 0 384 383.999986" height="512" preserveAspectRatio="xMidYMid meet" version="1.0"><defs><g/><clipPath id="a482c7686a"><path d="M 0 285 L 93 285 L 93 384 L 0 384 Z M 0 285 " clip-rule="nonzero"/></clipPath><clipPath id="05620b3f1f"><path d="M -64.078125 354.609375 L 31.65625 273.847656 L 107.582031 363.851562 L 11.847656 444.613281 Z M -64.078125 354.609375 " clip-rule="nonzero"/></clipPath><clipPath id="06bb5e6a44"><path d="M -64.078125 354.609375 L 31.65625 273.847656 L 107.582031 363.851562 L 11.847656 444.613281 Z M -64.078125 354.609375 " clip-rule="nonzero"/></clipPath><clipPath id="0d3c291e94"><path d="M 0 358 L 15 358 L 15 384 L 0 384 Z M 0 358 " clip-rule="nonzero"/></clipPath><clipPath id="655c22064c"><path d="M -64.078125 354.609375 L 31.65625 273.847656 L 107.582031 363.851562 L 11.847656 444.613281 Z M -64.078125 354.609375 " clip-rule="nonzero"/></clipPath><clipPath id="20064bfdb3"><path d="M -64.078125 354.609375 L 31.65625 273.847656 L 107.582031 363.851562 L 11.847656 444.613281 Z M -64.078125 354.609375 " clip-rule="nonzero"/></clipPath><clipPath id="bcdb2da933"><path d="M 46 325 L 57 325 L 57 338 L 46 338 Z M 46 325 " clip-rule="nonzero"/></clipPath><clipPath id="18aa60099d"><path d="M -64.078125 354.609375 L 31.65625 273.847656 L 107.582031 363.851562 L 11.847656 444.613281 Z M -64.078125 354.609375 " clip-rule="nonzero"/></clipPath><clipPath id="94cfb620ca"><path d="M -64.078125 354.609375 L 31.65625 273.847656 L 107.582031 363.851562 L 11.847656 444.613281 Z M -64.078125 354.609375 " clip-rule="nonzero"/></clipPath><clipPath id="f4559a7dae"><path d="M 285 0 L 384 0 L 384 106 L 285 106 Z M 285 0 " clip-rule="nonzero"/></clipPath><clipPath id="108565d4a3"><path d="M 271.859375 23.476562 L 375.621094 -64.054688 L 457.832031 33.402344 L 354.070312 120.933594 Z M 271.859375 23.476562 " clip-rule="nonzero"/></clipPath><clipPath id="78bebea131"><path d="M 375.828125 -64.226562 L 272.066406 23.304688 L 354.277344 120.757812 L 458.039062 33.226562 Z M 375.828125 -64.226562 " clip-rule="nonzero"/></clipPath><clipPath id="a0d24751c4"><path d="M 370 0 L 384 0 L 384 26 L 370 26 Z M 370 0 " clip-rule="nonzero"/></clipPath><clipPath id="f5060d6d0c"><path d="M 271.859375 23.476562 L 375.621094 -64.054688 L 457.832031 33.402344 L 354.070312 120.933594 Z M 271.859375 23.476562 " clip-rule="nonzero"/></clipPath><clipPath id="a843e70f1f"><path d="M 375.828125 -64.226562 L 272.066406 23.304688 L 354.277344 120.757812 L 458.039062 33.226562 Z M 375.828125 -64.226562 " clip-rule="nonzero"/></clipPath><clipPath id="a631fb920c"><path d="M 324 49 L 336 49 L 336 62 L 324 62 Z M 324 49 " clip-rule="nonzero"/></clipPath><clipPath id="1c58039743"><path d="M 271.859375 23.476562 L 375.621094 -64.054688 L 457.832031 33.402344 L 354.070312 120.933594 Z M 271.859375 23.476562 " clip-rule="nonzero"/></clipPath><clipPath id="e29870726f"><path d="M 375.828125 -64.226562 L 272.066406 23.304688 L 354.277344 120.757812 L 458.039062 33.226562 Z M 375.828125 -64.226562 " clip-rule="nonzero"/></clipPath></defs><g clip-path="url(#a482c7686a)"><g clip-path="url(#05620b3f1f)"><g clip-path="url(#06bb5e6a44)"><path fill="#20ffff" d="M 33.230469 288.140625 C 23.199219 283.6875 17.859375 285.488281 15.140625 287.78125 C 13.847656 288.871094 12.863281 290.308594 12.226562 292.039062 C 11.09375 295.09375 11.027344 299.046875 12.007812 303.804688 C 12.394531 305.648438 12.933594 307.621094 13.640625 309.675781 C 13.722656 309.921875 13.738281 310.183594 13.664062 310.4375 C 9.976562 324.417969 3.378906 337.328125 -3.210938 349.199219 C -4.601562 351.703125 -6.019531 354.203125 -7.226562 356.320312 C -7.234375 356.324219 -7.234375 356.339844 -7.242188 356.347656 C -7.25 356.367188 -7.257812 356.375 -7.277344 356.390625 C -7.285156 356.410156 -7.300781 356.425781 -7.316406 356.453125 C -7.335938 356.464844 -7.335938 356.480469 -7.351562 356.496094 C -7.367188 356.507812 -7.386719 356.535156 -7.402344 356.550781 C -7.410156 356.554688 -7.425781 356.570312 -7.425781 356.585938 C -7.457031 356.613281 -7.484375 356.648438 -7.515625 356.675781 C -7.523438 356.695312 -7.550781 356.746094 -7.578125 356.863281 C -7.582031 356.921875 -7.59375 357.003906 -7.597656 357.097656 C -7.597656 357.128906 -7.59375 357.164062 -7.597656 357.195312 C -7.597656 357.226562 -7.59375 357.261719 -7.59375 357.316406 C -7.59375 357.398438 -7.585938 357.488281 -7.570312 357.585938 C -7.566406 357.609375 -7.566406 357.636719 -7.5625 357.660156 C -7.554688 357.683594 -7.550781 357.71875 -7.546875 357.742188 C -7.480469 358.179688 -7.328125 358.78125 -7.042969 359.59375 C -6.992188 359.734375 -6.9375 359.863281 -6.890625 360.003906 C -6.070312 362.097656 -4.632812 364.644531 -2.765625 367.378906 C -2.753906 367.394531 -2.730469 367.421875 -2.726562 367.441406 C -2.640625 367.578125 -2.542969 367.710938 -2.449219 367.839844 C -2.367188 367.949219 -2.289062 368.0625 -2.207031 368.171875 C -2.175781 368.210938 -2.148438 368.257812 -2.113281 368.300781 C -1.882812 368.625 -1.648438 368.949219 -1.414062 369.273438 C -0.882812 370.003906 -0.3125 370.746094 0.273438 371.488281 C 0.398438 371.652344 0.535156 371.8125 0.667969 371.988281 C 0.695312 372.023438 0.722656 372.054688 0.75 372.085938 C 0.980469 372.375 1.210938 372.644531 1.4375 372.933594 C 1.601562 373.125 1.761719 373.316406 1.925781 373.511719 C 6.207031 378.585938 10.773438 382.761719 14.140625 384.6875 C 14.699219 385.007812 15.15625 385.226562 15.539062 385.371094 C 15.632812 385.402344 15.71875 385.4375 15.800781 385.46875 C 15.859375 385.488281 15.914062 385.507812 15.964844 385.519531 C 16.335938 385.632812 16.578125 385.660156 16.734375 385.667969 C 16.765625 385.667969 16.789062 385.664062 16.816406 385.664062 C 16.878906 385.65625 16.914062 385.652344 16.921875 385.644531 C 16.921875 385.644531 16.929688 385.636719 16.929688 385.636719 C 16.964844 385.609375 16.996094 385.582031 17.035156 385.566406 C 17.042969 385.558594 17.050781 385.550781 17.058594 385.542969 C 17.082031 385.523438 17.113281 385.511719 17.144531 385.5 C 17.152344 385.492188 17.152344 385.492188 17.160156 385.484375 C 17.214844 385.453125 17.269531 385.4375 17.324219 385.417969 C 19.613281 384.585938 22.316406 383.609375 25.015625 382.660156 C 37.820312 378.171875 51.664062 373.835938 66.066406 372.558594 C 66.320312 372.535156 66.585938 372.585938 66.8125 372.710938 C 68.71875 373.75 70.574219 374.617188 72.324219 375.308594 C 76.851562 377.074219 80.757812 377.675781 83.960938 377.074219 C 85.652344 376.757812 87.144531 376.101562 88.390625 375.136719 L 88.421875 375.109375 C 88.492188 375.046875 88.574219 374.980469 88.644531 374.921875 C 91.363281 372.628906 94.042969 367.664062 91.339844 357.027344 C 89.921875 351.460938 87.148438 344.949219 83.3125 338.207031 C 79.3125 331.1875 74.363281 324.148438 68.582031 317.292969 C 62.796875 310.4375 56.695312 304.359375 50.453125 299.25 C 44.4375 294.304688 38.488281 290.472656 33.230469 288.140625 Z M 86.296875 358.289062 C 87.867188 364.460938 87.496094 369.066406 85.285156 370.933594 C 85.246094 370.96875 85.203125 371.003906 85.164062 371.035156 C 84.574219 371.492188 83.871094 371.796875 83.003906 371.953125 C 80.808594 372.363281 77.761719 371.84375 74.21875 370.457031 C 66.351562 367.378906 56.917969 360.527344 47.78125 351.417969 L 56.484375 339.835938 C 55.988281 339.800781 55.449219 339.683594 54.871094 339.453125 C 52.875 338.667969 50.519531 336.785156 48.410156 334.285156 C 46.300781 331.78125 44.839844 329.140625 44.402344 327.042969 C 44.273438 326.4375 44.238281 325.890625 44.296875 325.386719 L 31.414062 332.015625 C 23.976562 321.476562 18.820312 311.015625 17.101562 302.75 C 16.324219 299.011719 16.332031 295.933594 17.097656 293.832031 C 17.425781 292.933594 17.886719 292.257812 18.496094 291.746094 C 20.699219 289.886719 25.3125 290.292969 31.136719 292.886719 C 41.230469 297.367188 53.738281 307.734375 64.613281 320.628906 C 75.46875 333.511719 83.585938 347.59375 86.296875 358.289062 Z M 86.296875 358.289062 " fill-opacity="1" fill-rule="nonzero"/></g></g></g><g clip-path="url(#0d3c291e94)"><g clip-path="url(#655c22064c)"><g clip-path="url(#20064bfdb3)"><path fill="#20ffff" d="M 9.164062 392.179688 L 10.582031 390.980469 L 11.585938 390.136719 L 14.414062 387.746094 C 14.351562 387.71875 14.285156 387.691406 14.222656 387.664062 C 14.214844 387.65625 14.199219 387.65625 14.191406 387.644531 C 14.128906 387.617188 14.058594 387.582031 13.984375 387.546875 C 13.964844 387.539062 13.941406 387.527344 13.921875 387.519531 C 13.855469 387.492188 13.785156 387.457031 13.714844 387.417969 C 13.699219 387.417969 13.683594 387.402344 13.671875 387.402344 C 13.59375 387.355469 13.503906 387.320312 13.425781 387.277344 C 13.40625 387.265625 13.382812 387.257812 13.371094 387.242188 C 13.300781 387.207031 13.242188 387.171875 13.171875 387.136719 C 13.148438 387.125 13.121094 387.109375 13.101562 387.101562 C 13.015625 387.046875 12.921875 387.003906 12.835938 386.949219 C 9.222656 384.878906 4.394531 380.488281 -0.078125 375.1875 C -4.128906 370.382812 -7.402344 365.417969 -9.042969 361.613281 C -9.15625 361.351562 -9.261719 361.097656 -9.359375 360.851562 C -9.40625 360.726562 -9.457031 360.605469 -9.5 360.472656 C -9.5 360.472656 -9.5 360.472656 -9.503906 360.464844 C -9.542969 360.375 -9.570312 360.289062 -9.601562 360.191406 C -9.605469 360.167969 -9.617188 360.136719 -9.625 360.113281 C -9.648438 360.035156 -9.679688 359.96875 -9.703125 359.890625 C -9.707031 359.867188 -9.722656 359.851562 -9.71875 359.835938 C -9.75 359.753906 -9.777344 359.652344 -9.800781 359.5625 C -9.808594 359.554688 -9.804688 359.539062 -9.8125 359.53125 C -9.835938 359.453125 -9.859375 359.378906 -9.882812 359.300781 C -9.886719 359.277344 -9.894531 359.257812 -9.898438 359.234375 C -9.921875 359.15625 -9.9375 359.074219 -9.960938 358.996094 C -9.96875 358.988281 -9.96875 358.988281 -9.964844 358.976562 C -9.984375 358.90625 -10.007812 358.828125 -10.023438 358.761719 L -25.050781 371.4375 C -26.523438 372.683594 -27.753906 374.105469 -28.75 375.644531 C -26.640625 381.867188 -23.253906 387.738281 -18.910156 392.625 C -15.324219 396.679688 -11.125 400.082031 -6.417969 402.765625 C -6.074219 402.960938 -5.726562 403.160156 -5.378906 403.347656 C -5.300781 403.308594 -5.222656 403.285156 -5.148438 403.246094 C -3.546875 402.542969 -2.011719 401.59375 -0.601562 400.402344 L 9.15625 392.167969 Z M 9.164062 392.179688 " fill-opacity="1" fill-rule="nonzero"/></g></g></g><g clip-path="url(#bcdb2da933)"><g clip-path="url(#18aa60099d)"><g clip-path="url(#94cfb620ca)"><path fill="#20ffff" d="M 46.9375 325.476562 C 46.910156 325.558594 46.832031 325.855469 46.960938 326.515625 C 47.300781 328.152344 48.621094 330.480469 50.40625 332.597656 C 52.191406 334.714844 54.265625 336.410156 55.824219 337.019531 C 56.457031 337.265625 56.75 337.238281 56.832031 337.222656 C 56.832031 337.222656 56.839844 337.21875 56.839844 337.21875 C 56.894531 337.101562 56.949219 336.714844 56.753906 335.945312 C 56.34375 334.300781 55.078125 332.117188 53.371094 330.097656 C 51.667969 328.074219 49.726562 326.460938 48.179688 325.777344 C 47.460938 325.449219 47.058594 325.445312 46.9375 325.476562 Z M 46.9375 325.476562 " fill-opacity="1" fill-rule="nonzero"/></g></g></g><g clip-path="url(#f4559a7dae)"><g clip-path="url(#108565d4a3)"><g clip-path="url(#78bebea131)"><path fill="#20ffff" d="M 287.039062 27.601562 C 284.113281 16.074219 287.011719 10.695312 289.960938 8.207031 C 291.359375 7.027344 293.070312 6.238281 295.039062 5.871094 C 298.507812 5.222656 302.746094 5.871094 307.652344 7.789062 C 309.546875 8.539062 311.558594 9.476562 313.625 10.605469 C 313.871094 10.738281 314.148438 10.800781 314.433594 10.769531 C 330.046875 9.382812 345.042969 4.691406 358.929688 -0.183594 C 361.859375 -1.207031 364.789062 -2.265625 367.269531 -3.171875 C 367.277344 -3.179688 367.292969 -3.175781 367.304688 -3.183594 C 367.328125 -3.191406 367.335938 -3.195312 367.355469 -3.210938 C 367.378906 -3.21875 367.394531 -3.230469 367.429688 -3.246094 C 367.445312 -3.261719 367.464844 -3.257812 367.480469 -3.273438 C 367.496094 -3.289062 367.53125 -3.300781 367.546875 -3.316406 C 367.558594 -3.324219 367.574219 -3.339844 367.589844 -3.335938 C 367.625 -3.367188 367.667969 -3.386719 367.703125 -3.417969 C 367.726562 -3.421875 367.785156 -3.441406 367.914062 -3.445312 C 367.980469 -3.441406 368.066406 -3.441406 368.171875 -3.425781 C 368.203125 -3.421875 368.242188 -3.410156 368.273438 -3.40625 C 368.308594 -3.40625 368.347656 -3.394531 368.402344 -3.382812 C 368.488281 -3.367188 368.582031 -3.339844 368.6875 -3.308594 C 368.710938 -3.296875 368.742188 -3.296875 368.765625 -3.285156 C 368.789062 -3.277344 368.828125 -3.265625 368.851562 -3.253906 C 369.304688 -3.101562 369.921875 -2.832031 370.738281 -2.375 C 370.875 -2.300781 371.007812 -2.214844 371.144531 -2.140625 C 373.234375 -0.882812 375.695312 1.117188 378.273438 3.613281 C 378.289062 3.632812 378.3125 3.65625 378.335938 3.667969 C 378.460938 3.78125 378.585938 3.914062 378.707031 4.039062 C 378.808594 4.144531 378.914062 4.25 379.019531 4.355469 C 379.054688 4.398438 379.101562 4.433594 379.136719 4.476562 C 379.441406 4.785156 379.746094 5.09375 380.050781 5.402344 C 380.734375 6.105469 381.421875 6.851562 382.105469 7.609375 C 382.261719 7.777344 382.410156 7.949219 382.570312 8.125 C 382.601562 8.160156 382.628906 8.195312 382.660156 8.230469 C 382.925781 8.527344 383.175781 8.824219 383.441406 9.121094 C 383.617188 9.328125 383.792969 9.535156 383.96875 9.746094 C 388.609375 15.246094 392.238281 20.890625 393.675781 24.835938 C 393.921875 25.492188 394.070312 26.023438 394.152344 26.457031 C 394.167969 26.5625 394.191406 26.664062 394.210938 26.753906 C 394.21875 26.820312 394.230469 26.882812 394.234375 26.941406 C 394.285156 27.355469 394.273438 27.621094 394.25 27.789062 C 394.246094 27.820312 394.238281 27.84375 394.234375 27.878906 C 394.214844 27.941406 394.203125 27.980469 394.191406 27.988281 C 394.191406 27.988281 394.183594 27.992188 394.183594 27.992188 C 394.148438 28.023438 394.113281 28.050781 394.085938 28.089844 C 394.078125 28.097656 394.070312 28.105469 394.0625 28.113281 C 394.035156 28.132812 394.015625 28.164062 393.996094 28.195312 C 393.988281 28.203125 393.988281 28.203125 393.980469 28.210938 C 393.9375 28.261719 393.90625 28.316406 393.878906 28.371094 C 392.570312 30.664062 391.03125 33.375 389.527344 36.085938 C 382.390625 48.949219 375.234375 62.949219 371.234375 78.101562 C 371.164062 78.371094 371.171875 78.664062 371.261719 78.929688 C 372.027344 81.15625 372.609375 83.296875 373.03125 85.292969 C 374.09375 90.449219 374.019531 94.738281 372.796875 98.046875 C 372.148438 99.796875 371.175781 101.273438 369.914062 102.425781 L 369.878906 102.453125 C 369.800781 102.519531 369.714844 102.59375 369.636719 102.660156 C 366.691406 105.144531 360.898438 107.097656 350.027344 102.269531 C 344.335938 99.738281 337.886719 95.585938 331.382812 90.253906 C 324.617188 84.703125 318 78.128906 311.730469 70.699219 C 305.460938 63.265625 300.082031 55.636719 295.761719 48.03125 C 291.574219 40.703125 288.566406 33.648438 287.039062 27.601562 Z M 352.296875 97.113281 C 358.605469 99.917969 363.59375 100.363281 365.992188 98.339844 C 366.035156 98.304688 366.078125 98.265625 366.121094 98.230469 C 366.71875 97.683594 367.171875 96.988281 367.5 96.085938 C 368.335938 93.820312 368.339844 90.46875 367.503906 86.429688 C 365.648438 77.460938 360.050781 66.132812 351.988281 54.707031 L 338.027344 61.890625 C 338.078125 61.355469 338.050781 60.753906 337.910156 60.097656 C 337.433594 57.820312 335.855469 54.960938 333.566406 52.246094 C 331.277344 49.535156 328.722656 47.496094 326.5625 46.640625 C 325.9375 46.394531 325.359375 46.257812 324.8125 46.226562 L 334.246094 33.671875 C 324.34375 23.804688 314.113281 16.382812 305.589844 13.035156 C 301.742188 11.523438 298.449219 10.96875 296.0625 11.40625 C 295.046875 11.59375 294.242188 11.960938 293.578125 12.519531 C 291.191406 14.535156 290.78125 19.535156 292.488281 26.234375 C 295.433594 37.835938 304.226562 53.089844 316.015625 67.066406 C 327.800781 81.019531 341.363281 92.265625 352.296875 97.113281 Z M 352.296875 97.113281 " fill-opacity="1" fill-rule="nonzero"/></g></g></g><g clip-path="url(#a0d24751c4)"><g clip-path="url(#f5060d6d0c)"><g clip-path="url(#a843e70f1f)"><path fill="#20ffff" d="M 402.589844 20.886719 L 401.050781 22.183594 L 399.964844 23.101562 L 396.898438 25.691406 C 396.878906 25.617188 396.863281 25.542969 396.84375 25.46875 C 396.835938 25.460938 396.835938 25.441406 396.832031 25.433594 C 396.8125 25.359375 396.789062 25.277344 396.761719 25.195312 C 396.757812 25.167969 396.75 25.144531 396.746094 25.121094 C 396.726562 25.046875 396.699219 24.964844 396.675781 24.878906 C 396.675781 24.863281 396.664062 24.847656 396.664062 24.832031 C 396.632812 24.738281 396.605469 24.640625 396.574219 24.550781 C 396.570312 24.523438 396.5625 24.5 396.546875 24.484375 C 396.523438 24.398438 396.496094 24.332031 396.472656 24.25 C 396.464844 24.226562 396.453125 24.191406 396.445312 24.167969 C 396.40625 24.066406 396.375 23.960938 396.335938 23.859375 C 394.78125 19.621094 390.972656 13.65625 386.125 7.910156 C 381.734375 2.703125 377.023438 -1.699219 373.261719 -4.148438 C 373 -4.3125 372.746094 -4.472656 372.5 -4.621094 C 372.378906 -4.699219 372.253906 -4.773438 372.125 -4.839844 C 372.125 -4.839844 372.125 -4.839844 372.117188 -4.847656 C 372.023438 -4.90625 371.941406 -4.953125 371.839844 -5 C 371.816406 -5.011719 371.785156 -5.03125 371.761719 -5.039062 C 371.683594 -5.078125 371.617188 -5.125 371.539062 -5.164062 C 371.515625 -5.175781 371.5 -5.191406 371.484375 -5.191406 C 371.398438 -5.242188 371.300781 -5.289062 371.207031 -5.328125 C 371.199219 -5.339844 371.183594 -5.339844 371.175781 -5.347656 C 371.097656 -5.386719 371.019531 -5.425781 370.941406 -5.464844 C 370.917969 -5.476562 370.894531 -5.484375 370.871094 -5.496094 C 370.796875 -5.535156 370.710938 -5.566406 370.632812 -5.605469 C 370.625 -5.613281 370.625 -5.613281 370.609375 -5.613281 C 370.539062 -5.644531 370.460938 -5.683594 370.390625 -5.714844 L 386.679688 -19.453125 C 388.277344 -20.804688 390.023438 -21.859375 391.847656 -22.640625 C 398.113281 -19.25 403.765625 -14.558594 408.195312 -9.027344 C 411.875 -4.453125 414.742188 0.65625 416.75 6.175781 C 416.894531 6.574219 417.042969 6.984375 417.179688 7.390625 C 417.125 7.464844 417.085938 7.542969 417.03125 7.621094 C 415.984375 9.203125 414.691406 10.664062 413.160156 11.957031 L 402.582031 20.878906 Z M 402.589844 20.886719 " fill-opacity="1" fill-rule="nonzero"/></g></g></g><g clip-path="url(#a631fb920c)"><g clip-path="url(#1c58039743)"><g clip-path="url(#e29870726f)"><path fill="#20ffff" d="M 324.425781 49.066406 C 324.515625 49.050781 324.851562 49.023438 325.53125 49.28125 C 327.21875 49.941406 329.464844 51.777344 331.402344 54.074219 C 333.335938 56.367188 334.769531 58.894531 335.136719 60.667969 C 335.285156 61.390625 335.203125 61.699219 335.167969 61.785156 C 335.167969 61.785156 335.160156 61.792969 335.160156 61.792969 C 335.027344 61.828125 334.601562 61.816406 333.816406 61.46875 C 332.136719 60.730469 330.035156 58.976562 328.1875 56.785156 C 326.339844 54.597656 324.964844 52.226562 324.519531 50.449219 C 324.300781 49.621094 324.367188 49.191406 324.425781 49.066406 Z M 324.425781 49.066406 " fill-opacity="1" fill-rule="nonzero"/></g></g></g><g fill="#20ffff" fill-opacity="1"><g transform="translate(70.161432, 190.209389)"><g><path d="M 50.542969 -24.453125 L 48.234375 -24.453125 L 48.234375 -24.550781 L 45.441406 -64.984375 L 2.503906 -64.984375 L 2.503906 0 L 27.726562 0 L 27.726562 -39.472656 L 30.230469 -39.472656 L 32.925781 0 L 75.574219 0 L 75.574219 -64.984375 L 50.542969 -64.984375 Z M 50.542969 -24.453125 "/></g></g></g><g fill="#20ffff" fill-opacity="1"><g transform="translate(148.239325, 190.209389)"><g><path d="M 1.925781 -26.570312 C 1.925781 -3.082031 7.507812 1.445312 33.40625 1.445312 C 59.207031 1.445312 64.984375 -3.082031 64.984375 -26.570312 L 64.984375 -38.21875 C 64.984375 -61.808594 59.207031 -66.332031 33.40625 -66.332031 C 7.507812 -66.332031 1.925781 -61.808594 1.925781 -38.21875 Z M 30.902344 -40.820312 C 30.902344 -42.457031 31.191406 -42.746094 33.40625 -42.746094 C 35.71875 -42.746094 36.007812 -42.457031 36.007812 -40.820312 L 36.007812 -24.070312 C 36.007812 -22.433594 35.71875 -22.144531 33.40625 -22.144531 C 31.191406 -22.144531 30.902344 -22.433594 30.902344 -24.070312 Z M 30.902344 -40.820312 "/></g></g></g><g fill="#20ffff" fill-opacity="1"><g transform="translate(215.149468, 190.209389)"><g><path d="M 34.082031 -22.71875 L 31.097656 -22.71875 L 29.75 -64.886719 L 0.867188 -64.886719 L 9.050781 0 L 56.128906 0 L 64.214844 -64.886719 L 35.332031 -64.886719 Z M 34.082031 -22.71875 "/></g></g></g><g fill="#20ffff" fill-opacity="1"><g transform="translate(280.230417, 190.209389)"><g><path d="M 31.097656 0 L 31.097656 -64.886719 L 2.503906 -64.886719 L 2.503906 0 Z M 31.097656 0 "/></g></g></g><g fill="#20ffff" fill-opacity="1"><g transform="translate(70.150321, 255.457697)"><g><path d="M 2.390625 -61.933594 L 2.390625 0 L 30.230469 0 C 57.890625 0 62.210938 -1.46875 62.210938 -23.433594 L 62.210938 -38.6875 C 62.210938 -60.464844 57.890625 -61.933594 30.046875 -61.933594 Z M 34.550781 -23.0625 C 34.550781 -21.59375 34.367188 -20.949219 32.804688 -20.949219 L 29.679688 -20.949219 L 29.679688 -40.890625 L 32.804688 -40.890625 C 34.183594 -40.890625 34.550781 -40.429688 34.550781 -38.871094 Z M 34.550781 -23.0625 "/></g></g></g><g fill="#20ffff" fill-opacity="1"><g transform="translate(134.197385, 255.457697)"><g><path d="M 61.289062 0 L 53.570312 -61.933594 L 8.636719 -61.933594 L 0.828125 0 L 28.484375 0 L 28.761719 -8.730469 L 33.355469 -8.730469 L 33.632812 0 Z M 29.679688 -39.328125 L 32.4375 -39.328125 L 32.898438 -24.535156 L 29.222656 -24.535156 Z M 29.679688 -39.328125 "/></g></g></g><g fill="#20ffff" fill-opacity="1"><g transform="translate(196.314772, 255.457697)"><g><path d="M 2.390625 -61.933594 L 2.390625 0 L 30.230469 0 C 57.890625 0 62.210938 -1.46875 62.210938 -23.433594 L 62.210938 -38.6875 C 62.210938 -60.464844 57.890625 -61.933594 30.046875 -61.933594 Z M 34.550781 -23.0625 C 34.550781 -21.59375 34.367188 -20.949219 32.804688 -20.949219 L 29.679688 -20.949219 L 29.679688 -40.890625 L 32.804688 -40.890625 C 34.183594 -40.890625 34.550781 -40.429688 34.550781 -38.871094 Z M 34.550781 -23.0625 "/></g></g></g><g fill="#20ffff" fill-opacity="1"><g transform="translate(260.361847, 255.457697)"><g><path d="M 51.089844 0 L 51.089844 -19.019531 L 29.957031 -19.019531 L 29.957031 -23.25 L 50.449219 -23.25 L 50.449219 -38.6875 L 29.957031 -38.6875 L 29.957031 -42.820312 L 51.273438 -42.820312 L 51.273438 -61.933594 L 2.390625 -61.933594 L 2.390625 0 Z M 51.089844 0 "/></g></g></g><g fill="#ffffff" fill-opacity="1"><g transform="translate(73.533157, 122.660035)"><g><path d="M 2.988281 0.746094 C 3.675781 0.808594 4.359375 0.5 4.484375 -0.0625 C 4.484375 -0.558594 4.296875 -1.121094 4.359375 -1.742188 C 4.484375 -3.488281 5.105469 -5.417969 5.417969 -6.914062 C 6.164062 -9.34375 7.597656 -13.453125 8.097656 -14.324219 C 9.714844 -14.636719 11.335938 -14.824219 13.140625 -15.132812 C 16.316406 -15.695312 20.429688 -18.871094 18.125 -18.871094 C 16.378906 -18.871094 15.132812 -18.683594 13.203125 -18.621094 C 11.894531 -18.558594 10.898438 -18.375 9.652344 -18.375 C 10.589844 -20.738281 11.585938 -23.167969 12.082031 -24.226562 C 12.953125 -26.285156 14.574219 -29.957031 15.382812 -32.011719 C 15.695312 -32.886719 14.136719 -34.691406 12.707031 -34.691406 C 12.519531 -34.691406 12.332031 -34.628906 12.144531 -34.566406 C 11.460938 -34.253906 10.214844 -31.390625 9.714844 -30.082031 L 6.914062 -23.480469 C 5.855469 -20.925781 5.605469 -20.179688 4.796875 -18.1875 C 1.621094 -17.5625 0.558594 -18.125 0.558594 -15.632812 C 0.558594 -14.636719 0.808594 -14.136719 1.929688 -14.136719 C 2.429688 -14.136719 3.113281 -14.261719 3.425781 -14.199219 C 1.992188 -10.648438 0.746094 -6.042969 0.558594 -3.050781 C 0.5 -2.117188 0.558594 -1.308594 0.871094 -0.808594 C 1.371094 0.25 2.242188 0.683594 2.988281 0.746094 Z M 2.988281 0.746094 "/></g></g></g><g fill="#ffffff" fill-opacity="1"><g transform="translate(87.919332, 122.660035)"><g><path d="M 8.40625 0.933594 C 11.769531 0.933594 15.820312 -1.246094 17.9375 -3.738281 C 19.742188 -5.855469 19.742188 -8.035156 19.371094 -7.660156 C 15.320312 -3.613281 10.898438 -2.179688 7.785156 -2.179688 C 6.601562 -2.179688 5.667969 -2.429688 5.167969 -2.988281 C 4.171875 -4.109375 4.234375 -5.917969 4.796875 -7.785156 C 5.855469 -7.101562 7.347656 -6.726562 8.46875 -6.726562 C 8.78125 -6.726562 9.03125 -6.726562 9.28125 -6.789062 C 12.519531 -7.472656 14.699219 -10.277344 15.507812 -12.890625 C 15.882812 -13.953125 16.007812 -14.949219 16.007812 -15.820312 C 16.007812 -16.195312 16.007812 -16.503906 15.945312 -16.878906 C 15.757812 -17.9375 15.382812 -18.621094 14.386719 -19.183594 C 13.765625 -19.558594 13.078125 -19.742188 12.394531 -19.742188 C 7.972656 -19.742188 0.621094 -13.328125 0.621094 -6.476562 C 0.621094 -4.484375 0.808594 -2.863281 2.863281 -1.121094 C 4.234375 0 6.414062 0.933594 8.40625 0.933594 Z M 6.226562 -10.402344 C 7.972656 -13.578125 12.644531 -17.253906 13.078125 -16.441406 C 13.578125 -15.570312 9.902344 -11.894531 9.28125 -11.460938 C 8.53125 -10.773438 7.347656 -9.839844 6.226562 -10.402344 Z M 6.226562 -10.402344 "/></g></g></g><g fill="#ffffff" fill-opacity="1"><g transform="translate(104.672064, 122.660035)"><g><path d="M 4.296875 1.867188 C 4.609375 1.867188 4.859375 1.742188 5.042969 1.371094 C 6.789062 -2.117188 9.46875 -5.480469 11.769531 -8.285156 C 12.644531 -9.34375 16.195312 -13.453125 18.1875 -14.949219 C 17.75 -11.710938 17.066406 -8.53125 16.878906 -7.472656 C 16.628906 -6.164062 16.195312 -4.859375 16.195312 -3.675781 C 16.195312 -2.617188 16.503906 -1.679688 17.6875 -0.933594 C 18.125 -0.621094 18.558594 -0.5 19.058594 -0.5 C 20.988281 -0.5 24.226562 -6.789062 28.152344 -11.523438 C 26.53125 -5.042969 27.652344 -2.117188 29.523438 -0.621094 C 30.707031 0.3125 32.824219 0.933594 34.691406 0.746094 C 38.988281 0.3125 44.21875 -7.535156 42.226562 -6.226562 C 41.230469 -5.792969 35.625 -1.433594 32.636719 -2.742188 C 31.515625 -3.238281 31.890625 -7.347656 32.574219 -13.953125 C 32.699219 -15.132812 30.953125 -17.4375 28.773438 -17.4375 C 27.464844 -17.4375 23.730469 -12.953125 20.988281 -9.15625 C 21.113281 -11.769531 21.425781 -14.324219 21.300781 -15.507812 C 21.175781 -16.566406 20.304688 -18.996094 18.558594 -19.308594 C 16.566406 -19.679688 14.074219 -16.816406 12.769531 -15.507812 C 12.269531 -15.011719 7.597656 -10.027344 6.601562 -8.035156 C 7.847656 -11.335938 9.46875 -15.195312 10.152344 -17.75 C 10.402344 -18.871094 10.527344 -19.558594 8.59375 -20.554688 C 6.914062 -21.425781 6.851562 -21.550781 5.230469 -17.191406 C 4.109375 -14.199219 0.3125 -3.425781 0.3125 -1.183594 C 0.3125 0.746094 2.117188 1.867188 4.296875 1.867188 Z M 4.296875 1.867188 "/></g></g></g><g fill="#ffffff" fill-opacity="1"><g transform="translate(148.615361, 278.851214)"><g><path d="M 6.59375 0.796875 C 8.191406 0.796875 9.785156 0.371094 10.847656 -0.320312 C 12.125 -1.171875 13.296875 -1.914062 14.199219 -2.976562 C 15.261719 -4.203125 15.636719 -5.425781 15.636719 -5.957031 C 15.636719 -6.222656 15.582031 -6.382812 15.421875 -6.328125 C 12.65625 -4.414062 8.722656 -1.859375 5.53125 -1.859375 C 5.050781 -1.859375 4.414062 -1.914062 3.933594 -2.5 C 3.617188 -2.925781 3.457031 -3.457031 3.457031 -4.042969 C 3.457031 -5.902344 4.734375 -7.976562 5.902344 -9.574219 C 6.59375 -10.53125 7.445312 -11.914062 8.457031 -12.550781 C 8.988281 -12.871094 9.253906 -12.976562 9.464844 -12.976562 C 9.839844 -12.976562 9.996094 -12.550781 10.902344 -12.390625 C 11.167969 -12.335938 11.433594 -12.285156 11.648438 -12.285156 C 12.390625 -12.285156 12.710938 -12.710938 12.710938 -13.242188 C 12.710938 -14.039062 12.019531 -15.261719 11.328125 -15.902344 C 10.476562 -16.644531 9.625 -16.964844 8.828125 -16.964844 C 7.5 -16.964844 6.273438 -16.113281 5.105469 -15.050781 C 2.925781 -13.027344 0.320312 -9.148438 0.320312 -5.316406 C 0.320312 -3.667969 0.851562 -2.074219 2.128906 -0.746094 C 3.191406 0.320312 4.894531 0.796875 6.59375 0.796875 Z M 6.59375 0.796875 "/></g></g></g><g fill="#ffffff" fill-opacity="1"><g transform="translate(161.909815, 278.851214)"><g><path d="M 18.402344 0.636719 C 18.773438 0.636719 19.144531 0.636719 19.464844 0.53125 C 22.972656 -0.320312 26.269531 -6.808594 25.578125 -6.808594 C 25.527344 -6.808594 25.367188 -6.699219 25.15625 -6.488281 C 24.570312 -6.007812 21.855469 -2.820312 19.410156 -2.234375 C 19.199219 -2.179688 18.984375 -2.179688 18.824219 -2.179688 C 17.867188 -2.179688 17.550781 -2.871094 17.550781 -4.09375 C 17.550781 -6.859375 18.878906 -10.421875 18.71875 -12.550781 C 18.613281 -14.039062 16.539062 -16.433594 15.15625 -16.433594 C 12.496094 -16.433594 8.613281 -12.019531 5.742188 -7.390625 C 5.742188 -10.53125 12.335938 -27.28125 14.785156 -31.535156 C 15.210938 -32.332031 15.902344 -33.609375 15.902344 -34.671875 C 15.902344 -35.523438 14.945312 -36.375 13.667969 -36.375 C 11.699219 -36.375 7.125 -23.984375 4.625 -17.390625 C 2.019531 -10.476562 0.691406 -5.425781 0.691406 -2.445312 C 0.691406 -1.277344 1.703125 0 3.617188 0 C 3.777344 0 3.988281 0 4.148438 -0.0546875 C 5.265625 -0.265625 5.796875 -1.382812 6.699219 -2.820312 C 9.945312 -8.03125 10.957031 -9.253906 14.625 -12.761719 C 14.039062 -9.253906 13.507812 -6.542969 13.507812 -4.46875 C 13.507812 -1.171875 16.007812 0.636719 18.402344 0.636719 Z M 18.402344 0.636719 "/></g></g></g><g fill="#ffffff" fill-opacity="1"><g transform="translate(184.457203, 278.851214)"><g><path d="M 7.179688 0.796875 C 10.050781 0.796875 13.507812 -1.0625 15.316406 -3.191406 C 16.859375 -5 16.859375 -6.859375 16.539062 -6.542969 C 13.082031 -3.085938 9.304688 -1.859375 6.648438 -1.859375 C 5.636719 -1.859375 4.839844 -2.074219 4.414062 -2.550781 C 3.5625 -3.511719 3.617188 -5.050781 4.09375 -6.648438 C 5 -6.0625 6.273438 -5.742188 7.234375 -5.742188 C 7.5 -5.742188 7.710938 -5.742188 7.925781 -5.796875 C 10.6875 -6.382812 12.550781 -8.773438 13.242188 -11.007812 C 13.5625 -11.914062 13.667969 -12.761719 13.667969 -13.507812 C 13.667969 -13.828125 13.667969 -14.09375 13.613281 -14.410156 C 13.453125 -15.316406 13.136719 -15.902344 12.285156 -16.378906 C 11.753906 -16.699219 11.167969 -16.859375 10.582031 -16.859375 C 6.808594 -16.859375 0.53125 -11.378906 0.53125 -5.53125 C 0.53125 -3.828125 0.691406 -2.445312 2.445312 -0.957031 C 3.617188 0 5.476562 0.796875 7.179688 0.796875 Z M 5.316406 -8.882812 C 6.808594 -11.59375 10.796875 -14.730469 11.167969 -14.039062 C 11.59375 -13.296875 8.457031 -10.15625 7.925781 -9.785156 C 7.285156 -9.199219 6.273438 -8.402344 5.316406 -8.882812 Z M 5.316406 -8.882812 "/></g></g></g><g fill="#ffffff" fill-opacity="1"><g transform="translate(198.762035, 278.851214)"><g><path d="M 0.371094 21.539062 C 7.925781 21.539062 12.335938 11.539062 14.519531 5.53125 C 14.996094 4.203125 17.175781 -4.203125 18.132812 -9.09375 C 18.613281 -10.476562 20.261719 -12.019531 20.261719 -13.402344 C 20.261719 -13.933594 20.050781 -14.410156 19.464844 -14.890625 C 19.039062 -15.261719 17.976562 -15.742188 17.65625 -15.636719 C 17.125 -15.476562 16.644531 -15.261719 15.902344 -14.519531 C 14.570312 -15.902344 12.871094 -16.804688 11.328125 -16.804688 C 10.582031 -16.804688 9.785156 -16.539062 8.933594 -16.007812 C 6.488281 -14.464844 4.253906 -11.648438 2.976562 -9.039062 C 2.179688 -7.445312 1.011719 -4.894531 1.011719 -2.820312 C 1.011719 -2.285156 1.0625 -1.808594 1.222656 -1.382812 C 1.648438 -0.0546875 3.351562 1.277344 4.945312 1.277344 C 7.5 1.277344 12.550781 -4.785156 14.570312 -7.816406 C 14.464844 -7.234375 14.253906 -6.007812 14.09375 -5.476562 C 13.453125 -3.191406 12.976562 -0.957031 12.761719 -0.265625 C 10.847656 6.753906 6.273438 18.1875 0.320312 18.1875 C -2.976562 18.1875 -4.46875 15.476562 -5.53125 11.648438 C -5.902344 10.265625 -6.488281 12.976562 -6.488281 14.199219 C -6.488281 18.402344 -3.617188 21.539062 0.371094 21.539062 Z M 4.414062 -2.128906 C 4.148438 -2.128906 4.042969 -2.445312 4.042969 -2.660156 C 4.042969 -4.359375 7.285156 -8.722656 7.925781 -9.519531 C 8.667969 -10.421875 10.957031 -13.347656 12.605469 -13.347656 C 12.921875 -13.347656 13.507812 -13.082031 14.304688 -12.445312 C 12.710938 -9.730469 6.273438 -2.128906 4.414062 -2.128906 Z M 4.414062 -2.128906 "/></g></g></g><g fill="#ffffff" fill-opacity="1"><g transform="translate(219.235492, 278.851214)"><g><path d="M 16.328125 1.117188 C 19.996094 0.746094 23.929688 -6.542969 22.335938 -5.265625 C 21.589844 -4.894531 18.132812 -1.808594 15.476562 -1.59375 C 14.09375 -1.488281 13.71875 -2.394531 13.71875 -3.5625 C 13.71875 -6.542969 15.6875 -11.433594 17.125 -14.039062 C 17.496094 -14.730469 16.964844 -15.527344 15.953125 -16.007812 C 15.421875 -16.328125 14.09375 -17.019531 13.453125 -16.007812 C 10.53125 -18.027344 6.808594 -16.007812 4.253906 -13.1875 C -0.105469 -8.507812 -3.085938 -0.851562 2.660156 -0.210938 C 4.519531 -0.0546875 7.179688 -1.328125 10.53125 -4.945312 C 10.847656 -0.957031 13.242188 1.4375 16.328125 1.117188 Z M 2.871094 -3.777344 C 5.050781 -9.304688 10.316406 -14.464844 11.804688 -13.082031 C 11.804688 -10.105469 1.808594 -0.320312 2.871094 -3.777344 Z M 2.871094 -3.777344 "/></g></g></g><g fill="#ffffff" fill-opacity="1"><g transform="translate(239.283526, 278.851214)"><g><path d="M 17.921875 0.636719 C 18.402344 0.636719 18.878906 0.585938 19.304688 0.480469 C 20.847656 0.105469 21.855469 -0.691406 23.347656 -2.234375 C 24.570312 -3.457031 25.207031 -5.316406 24.730469 -5.105469 C 23.878906 -4.734375 23.027344 -4.09375 22.761719 -3.933594 C 21.699219 -3.296875 19.730469 -1.753906 18.242188 -1.753906 C 16.59375 -1.753906 16.378906 -3.402344 16.378906 -5.210938 C 16.378906 -6.964844 16.859375 -8.933594 17.070312 -9.839844 C 17.285156 -10.847656 17.710938 -12.070312 17.710938 -13.136719 C 17.710938 -14.199219 16.113281 -15.371094 15.261719 -15.371094 C 14.09375 -15.371094 11.59375 -13.5625 10.476562 -12.445312 C 8.082031 -10.105469 7.5 -9.574219 5.425781 -7.445312 C 6.699219 -10.6875 7.925781 -14.570312 8.191406 -15.15625 C 8.402344 -16.113281 8.507812 -16.699219 6.859375 -17.550781 C 5.425781 -18.292969 4.945312 -18.402344 4.46875 -16.484375 C 2.179688 -7.816406 0.480469 -3.296875 0.480469 -2.074219 C 0.480469 -1.382812 0.746094 -1.011719 1.171875 -0.425781 C 1.703125 0.210938 2.179688 0.480469 2.605469 0.480469 C 3.617188 0.480469 4.46875 -0.746094 5.160156 -1.703125 C 5.957031 -2.710938 7.816406 -4.679688 8.988281 -5.851562 C 9.304688 -6.117188 12.921875 -10.105469 13.828125 -10.6875 C 12.605469 -6.433594 12.710938 -3.03125 13.667969 -1.542969 C 14.679688 0 16.699219 0.636719 17.921875 0.636719 Z M 17.921875 0.636719 "/></g></g></g><g fill="#ffffff" fill-opacity="1"><g transform="translate(261.671381, 278.851214)"><g><path d="M 18.027344 0.636719 C 21.699219 0.320312 26.164062 -6.433594 24.464844 -5.316406 C 23.71875 -5 20.050781 -2.128906 17.390625 -2.128906 C 17.019531 -2.128906 16.59375 -2.179688 16.273438 -2.339844 C 15.792969 -2.550781 15.261719 -3.296875 15.261719 -5.050781 C 15.261719 -6.433594 15.582031 -8.402344 16.484375 -11.273438 C 17.070312 -13.136719 17.761719 -14.679688 18.558594 -16.273438 C 18.71875 -16.644531 21.484375 -23.347656 23.503906 -28.34375 C 23.878906 -29.300781 24.25 -30.257812 24.25 -31.21875 C 24.25 -31.800781 24.089844 -32.386719 23.71875 -32.917969 C 23.132812 -33.714844 22.601562 -34.089844 22.175781 -34.089844 C 21.484375 -34.089844 21.007812 -33.289062 20.632812 -32.175781 C 19.359375 -28.34375 17.550781 -24.675781 16.007812 -20.953125 C 15.316406 -19.25 14.730469 -17.601562 14.09375 -15.902344 C 13.71875 -14.945312 13.613281 -14.519531 13.402344 -14.519531 C 13.242188 -14.519531 12.976562 -14.785156 12.390625 -15.316406 C 11.273438 -16.273438 10.316406 -16.644531 9.414062 -16.644531 C 7.710938 -16.644531 6.273438 -15.316406 4.785156 -13.453125 C 3.191406 -11.488281 1.0625 -8.136719 1.0625 -5.210938 C 1.0625 -4.46875 1.222656 -3.722656 1.542969 -3.03125 C 2.339844 -1.328125 3.777344 -0.636719 5.210938 -0.636719 C 6.433594 -0.636719 7.710938 -1.117188 8.722656 -2.019531 C 9.464844 -2.660156 10.316406 -3.457031 10.902344 -4.253906 C 11.167969 -4.625 11.914062 -5.476562 12.335938 -6.382812 C 12.335938 -1.171875 15.050781 0.902344 18.027344 0.636719 Z M 4.359375 -3.988281 C 3.988281 -3.988281 4.042969 -4.359375 4.042969 -4.574219 C 4.042969 -7.074219 8.882812 -13.242188 10.742188 -13.242188 C 11.113281 -13.242188 11.753906 -12.496094 11.753906 -12.125 C 11.753906 -10.6875 6.007812 -3.988281 4.359375 -3.988281 Z M 4.359375 -3.988281 "/></g></g></g><g fill="#ffffff" fill-opacity="1"><g transform="translate(283.474287, 278.851214)"><g><path d="M 5.851562 0 C 8.296875 0 10.421875 -2.285156 12.125 -4.203125 C 13.5625 -5.851562 15.101562 -7.285156 15.421875 -9.625 C 15.476562 -9.890625 15.476562 -10.105469 15.476562 -10.371094 C 15.476562 -12.65625 13.613281 -13.136719 11.914062 -14.570312 C 11.328125 -15.050781 11.273438 -15.15625 11.273438 -15.316406 L 11.273438 -15.421875 C 11.273438 -15.582031 11.222656 -15.847656 10.957031 -16.433594 C 10.582031 -17.125 9.148438 -18.242188 8.347656 -18.1875 C 6.488281 -17.921875 4.09375 -12.761719 3.242188 -11.273438 C 2.339844 -9.679688 1.222656 -6.859375 1.222656 -4.46875 C 1.222656 -2.710938 1.859375 -1.171875 3.777344 -0.53125 C 4.46875 -0.160156 5.160156 0 5.851562 0 Z M 4.945312 -3.085938 C 4.679688 -3.085938 4.519531 -3.296875 4.519531 -3.722656 C 4.519531 -4.203125 4.839844 -5.265625 5.160156 -6.117188 C 5.691406 -7.550781 6.753906 -10.796875 8.773438 -11.964844 C 9.679688 -12.496094 11.964844 -11.699219 11.964844 -11.753906 C 12.179688 -11.539062 12.285156 -11.328125 12.285156 -11.0625 C 12.285156 -9.359375 6.433594 -3.085938 4.945312 -3.085938 Z M 4.945312 -3.085938 "/></g></g></g><g fill="#ffffff" fill-opacity="1"><g transform="translate(299.055383, 278.851214)"><g><path d="M 9.414062 -9.839844 C 12.285156 -20.582031 18.71875 -31.960938 18.71875 -33.824219 C 18.71875 -35.683594 16.644531 -36.429688 16.113281 -36.429688 C 15.847656 -36.429688 15.527344 -36.429688 15.371094 -35.949219 C 14.199219 -32.175781 7.339844 -15.742188 7.019531 -11.914062 C 6.859375 -10.050781 8.988281 -8.296875 9.414062 -9.839844 Z M 4.734375 0.53125 C 6.0625 0.53125 8.191406 -1.4375 8.191406 -3.136719 C 8.191406 -4.414062 7.605469 -5.160156 6.328125 -5.160156 C 4.359375 -5.160156 2.976562 -3.136719 2.976562 -1.808594 C 2.976562 -0.480469 3.617188 0.53125 4.734375 0.53125 Z M 4.734375 0.53125 "/></g></g></g></svg>